# xmcd
#
# Track frame offsets:
#	150
#	14173
#	30104
#	45296
#	57493
#	77456
#	94176
#	109217
#	126782
#	144711
#	163886
#	183034
#	200091
#	219109
#	237269
#	254514
#	270694
#	285406
#	302859
#	317679
#	334870
#
# Disc length: 4735 seconds
#
# Revision: 0
# Processed by: cddbd v1.5.1PL2 Copyright (c) Steve Scherf et al.
# Submitted via: EasyCDDAExtractor 4.6.9.1
#
DISCID=2a127d15
DTITLE=Kenny Rogers - 42 Ultimate Hits [CD2]
DYEAR=2004
DGENRE=Country
TTITLE0=What Are We Doin' In Love (w-Dottie West)
TTITLE1=I Don't Need You
TTITLE2=Share Your Love With Me
TTITLE3=Blaze Of Glory
TTITLE4=Through The Years
TTITLE5=Love Will Turn You Around
TTITLE6=A Love Song
TTITLE7=We've Got Tonight (w-Sheena Easton)
TTITLE8=Scarlet Fever
TTITLE9=Islands In The Stream (w-Dolly Parton)
TTITLE10=Buried Treasure
TTITLE11=Crazy
TTITLE12=Morning Desire
TTITLE13=Make No Mistake, She's Mine (w-Ronnie Milsap)
TTITLE14=Twenty Years Ago
TTITLE15=The Vows Go Unbroken
TTITLE16=The Greatest
TTITLE17=Buy Me A Rose (Alison Krauss and Billy Dean)
TTITLE18=It's A Beautiful Life
TTITLE19=My World Is Over (w-Whitney Duncan)
TTITLE20=We Are The Same
EXTD=YEAR: 2004
EXTT0=
EXTT1=
EXTT2=
EXTT3=
EXTT4=
EXTT5=
EXTT6=
EXTT7=
EXTT8=
EXTT9=
EXTT10=
EXTT11=
EXTT12=
EXTT13=
EXTT14=
EXTT15=
EXTT16=
EXTT17=
EXTT18=
EXTT19=
EXTT20=
PLAYORDER=
